<svg id="图层_1" data-name="图层 1" xmlns="http://www.w3.org/2000/svg" viewBox="0 0 590.74 119.58"><defs><style>.cls-1{fill:#0164f9;fill-rule:evenodd;}</style></defs><polygon class="cls-1" points="435.29 1.41 349.26 1.41 349.26 119.58 380.62 119.58 380.62 17.32 416.18 17.32 420.28 17.87 423.97 19.43 427.1 21.86 429.52 24.98 431.09 28.67 431.64 32.77 431.64 119.58 463 119.58 463 29.13 462.7 25.05 461.82 21.15 460.42 17.47 458.52 14.06 456.18 10.96 453.45 8.22 450.35 5.89 446.94 3.99 443.27 2.58 439.37 1.71 435.29 1.41"/><polygon class="cls-1" points="563 1.41 504.7 1.41 500.62 1.71 496.72 2.58 493.05 3.99 489.64 5.89 486.54 8.23 483.8 10.97 481.46 14.06 479.57 17.47 478.16 21.15 477.28 25.05 476.98 29.13 476.98 91.86 477.28 95.94 478.16 99.84 479.57 103.52 481.46 106.93 483.8 110.02 486.54 112.76 489.64 115.1 493.05 116.99 496.72 118.4 500.62 119.28 504.7 119.58 563 119.58 567.09 119.28 570.99 118.4 574.67 116.99 578.08 115.1 581.18 112.76 583.92 110.02 586.26 106.93 588.07 103.67 523.8 103.67 519.7 103.11 516.01 101.55 512.89 99.14 510.47 96.01 508.91 92.32 508.35 88.22 508.35 32.78 508.91 28.68 510.47 24.99 512.89 21.86 516.01 19.43 519.7 17.87 523.8 17.32 588.07 17.32 586.26 14.06 583.92 10.97 581.18 8.23 578.08 5.89 574.67 3.99 570.99 2.58 567.09 1.71 563 1.41"/><polygon class="cls-1" points="588.07 17.32 543.92 17.32 548.01 17.87 551.7 19.43 554.83 21.86 557.25 24.99 558.81 28.68 559.37 32.78 559.37 88.22 558.81 92.32 557.25 96.01 554.83 99.14 551.7 101.55 548.01 103.11 543.92 103.67 588.07 103.67 588.16 103.52 589.56 99.84 590.44 95.94 590.74 91.86 590.74 29.13 590.44 25.05 589.56 21.15 588.16 17.47 588.07 17.32"/><polygon class="cls-1" points="224.51 0 155.44 0 151.36 0.3 147.46 1.18 143.78 2.59 140.37 4.48 137.28 6.82 134.54 9.56 132.2 12.65 130.3 16.06 128.9 19.74 128.02 23.64 127.72 27.73 127.72 90.44 128.02 94.53 128.9 98.43 130.3 102.11 132.2 105.52 134.54 108.61 137.28 111.35 140.37 113.69 143.78 115.59 147.46 117 151.36 117.87 155.44 118.17 224.51 118.17 224.51 102.26 174.52 102.26 170.43 101.71 166.74 100.15 163.61 97.73 161.19 94.6 159.63 90.91 159.07 86.82 159.07 65.76 224.51 65.76 224.51 49.85 174.52 49.85 170.43 49.29 166.74 47.73 163.61 45.31 161.19 42.18 159.63 38.49 159.07 34.39 159.07 31.36 159.63 27.27 161.19 23.58 163.61 20.45 166.74 18.03 170.43 16.47 174.52 15.91 224.51 15.91 224.51 0"/><polygon class="cls-1" points="335.28 0 266.22 0 262.13 0.3 258.23 1.18 254.55 2.59 251.15 4.48 248.05 6.82 245.31 9.56 242.97 12.65 241.08 16.06 239.67 19.74 238.79 23.64 238.49 27.73 238.49 90.44 238.79 94.53 239.67 98.43 241.08 102.11 242.97 105.52 245.31 108.61 248.05 111.35 251.15 113.69 254.55 115.59 258.23 117 262.13 117.87 266.22 118.17 335.28 118.17 335.28 102.26 285.31 102.26 281.21 101.71 277.52 100.15 274.38 97.73 271.96 94.6 270.4 90.91 269.84 86.82 269.84 31.36 270.4 27.27 271.96 23.58 274.38 20.45 277.52 18.03 281.21 16.47 285.31 15.91 335.28 15.91 335.28 0"/><polygon class="cls-1" points="113.76 0 0 0 0 15.91 41.19 15.91 41.19 118.17 72.56 118.17 72.56 31.36 73.11 27.27 74.67 23.59 77.09 20.46 80.21 18.04 83.89 16.48 87.98 15.91 113.76 15.91 113.76 0"/></svg>